<?xml version="1.0" encoding="UTF-8"?>
<!DOCTYPE svg PUBLIC "-//W3C//DTD SVG 1.1//EN" "http://www.w3.org/Graphics/SVG/1.1/DTD/svg11.dtd">
<svg xmlns="http://www.w3.org/2000/svg" xmlns:xlink="http://www.w3.org/1999/xlink" version="1.1" width="79px" height="79px" viewBox="-0.5 -0.5 79 79"><defs><linearGradient x1="0%" y1="100%" x2="0%" y2="0%" id="mx-gradient-ff4f8b-1-bc1356-1-s-0"><stop offset="0%" style="stop-color: rgb(188, 19, 86); stop-opacity: 1;"/><stop offset="100%" style="stop-color: rgb(255, 79, 139); stop-opacity: 1;"/></linearGradient></defs><g><path d="M 0 0 L 78 0 L 78 78 L 0 78 Z" fill="url(#mx-gradient-ff4f8b-1-bc1356-1-s-0)" stroke="none" pointer-events="all"/><path d="M 12.34 36.73 C 13.59 36.73 14.61 37.75 14.61 39 C 14.61 40.25 13.59 41.27 12.34 41.27 C 11.09 41.27 10.07 40.25 10.07 39 C 10.07 37.75 11.09 36.73 12.34 36.73 Z M 39.57 66.23 C 26.31 66.23 14.94 56.55 12.56 43.52 C 14.57 43.42 16.23 42.02 16.71 40.13 L 23.68 40.13 L 23.68 37.87 L 16.71 37.87 C 16.23 35.98 14.57 34.58 12.56 34.48 C 14.93 21.65 26.53 11.77 39.57 11.77 C 44.46 11.77 49.59 13.61 54.8 17.24 L 56.1 15.38 C 50.5 11.48 44.93 9.5 39.57 9.5 C 25.12 9.5 12.28 20.69 10.14 35.05 C 8.75 35.83 7.8 37.3 7.8 39 C 7.8 40.7 8.75 42.17 10.14 42.95 C 12.3 57.54 24.88 68.5 39.57 68.5 C 45.7 68.5 51.98 66.41 57.25 62.61 L 55.92 60.77 C 51.04 64.29 45.23 66.23 39.57 66.23 Z M 27.2 34.96 C 29.31 35.48 31.94 35.6 33.89 35.6 C 35.76 35.6 38.23 35.49 40.28 35.04 L 35.15 45.3 C 35.07 45.46 35.03 45.63 35.03 45.81 L 35.03 50.86 C 34.12 51.44 32.57 52.4 31.63 52.6 L 31.63 45.81 C 31.63 45.66 31.6 45.51 31.54 45.37 Z M 33.89 31.06 C 38.46 31.06 40.9 31.74 41.66 32.19 C 40.9 32.64 38.46 33.33 33.89 33.33 C 29.33 33.33 26.89 32.64 26.13 32.19 C 26.89 31.74 29.33 31.06 33.89 31.06 Z M 30.49 54.88 L 31.63 54.88 C 31.67 54.88 31.72 54.88 31.77 54.87 C 33.16 54.69 34.93 53.62 36.47 52.63 L 36.77 52.44 C 37.1 52.23 37.3 51.87 37.3 51.48 L 37.3 46.08 L 43.61 33.46 C 43.92 33.1 44.11 32.69 44.11 32.19 C 44.11 29.23 37.71 28.79 33.89 28.79 C 30.08 28.79 23.68 29.23 23.68 32.19 C 23.68 32.61 23.82 32.97 24.05 33.29 L 29.36 46.03 L 29.36 53.75 C 29.36 54.38 29.86 54.88 30.49 54.88 Z M 63.39 53.75 C 64.64 53.75 65.66 54.77 65.66 56.02 C 65.66 57.27 64.64 58.29 63.39 58.29 C 62.14 58.29 61.12 57.27 61.12 56.02 C 61.12 54.77 62.14 53.75 63.39 53.75 Z M 63.39 19.71 C 64.64 19.71 65.66 20.73 65.66 21.98 C 65.66 23.23 64.64 24.25 63.39 24.25 C 62.14 24.25 61.12 23.23 61.12 21.98 C 61.12 20.73 62.14 19.71 63.39 19.71 Z M 65.66 36.73 C 66.91 36.73 67.93 37.75 67.93 39 C 67.93 40.25 66.91 41.27 65.66 41.27 C 64.41 41.27 63.39 40.25 63.39 39 C 63.39 37.75 64.41 36.73 65.66 36.73 Z M 54.32 40.13 L 61.29 40.13 C 61.79 42.09 63.55 43.54 65.66 43.54 C 68.16 43.54 70.2 41.5 70.2 39 C 70.2 36.5 68.16 34.46 65.66 34.46 C 63.55 34.46 61.79 35.91 61.29 37.87 L 54.32 37.87 L 54.32 23.12 L 59.02 23.12 C 59.52 25.07 61.28 26.52 63.39 26.52 C 65.9 26.52 67.93 24.48 67.93 21.98 C 67.93 19.48 65.9 17.44 63.39 17.44 C 61.28 17.44 59.52 18.9 59.02 20.85 L 53.18 20.85 C 52.55 20.85 52.05 21.36 52.05 21.98 L 52.05 37.87 L 44.11 37.87 L 44.11 40.13 L 52.05 40.13 L 52.05 56.02 C 52.05 56.64 52.55 57.15 53.18 57.15 L 59.02 57.15 C 59.52 59.1 61.28 60.56 63.39 60.56 C 65.9 60.56 67.93 58.52 67.93 56.02 C 67.93 53.52 65.9 51.48 63.39 51.48 C 61.28 51.48 59.52 52.93 59.02 54.88 L 54.32 54.88 Z" fill="#ffffff" stroke="none" pointer-events="all"/></g></svg>